<svg width="117" height="118" viewBox="0 0 117 118" fill="none" xmlns="http://www.w3.org/2000/svg">
<path d="M58.4898 116.904L16.8317 59.0473L58.4898 0.807555L97.9635 59.0473L58.4898 116.904Z" stroke="#761A8D" stroke-width="0.923201"/>
<path d="M28.127 58.3926L86.0578 58.3926" stroke="#761A8D" stroke-width="0.923201"/>
<path d="M52.79 36.7748V35.7605H44.7571V36.7748H46.5828L51.6541 50.3659C52.222 51.9075 52.8035 52.8001 53.3986 53.0435C53.6961 53.1517 54.0612 53.2058 54.494 53.2058H55.3054L58.835 42.5764L61.5532 50.3659C62.0671 51.8805 62.5945 52.773 63.1355 53.0435C63.4059 53.1517 63.7711 53.2058 64.2309 53.2058H64.88L69.789 38.2353C70.0595 37.3969 70.384 36.9236 70.7627 36.8154C70.8979 36.7883 71.0467 36.7748 71.209 36.7748C71.804 36.7748 72.1421 36.5855 72.2232 36.2068C72.2503 36.0716 72.2638 35.9228 72.2638 35.7605H66.2594V36.7748H69.0993L64.596 50.7716L59.8493 36.7748H62.6892V35.7605H56.4414L58.267 40.913L54.8997 50.8933L49.7472 36.7748H52.79Z" fill="#761A8D"/>
<path d="M69.3895 86.8535C69.3895 86.3246 69.1972 86.0241 68.8125 85.952C68.6923 85.9279 68.5721 85.9159 68.4519 85.9159H67.2258L58.9675 65.216H57.6331L49.5551 85.9159H47.2832V86.8535H53.7023C53.7023 86.3246 53.51 86.0241 53.1253 85.952C53.0051 85.9279 52.8849 85.9159 52.7647 85.9159H50.9976L53.7023 78.9198H61.2394L63.9441 85.9159H61.6V86.8535H69.3895ZM60.8427 77.8739H54.099L57.4528 69.1468L60.8427 77.8739Z" fill="#761A8D"/>
</svg>
